<svg width="50" height="50" viewBox="0 0 50 50" fill="none" xmlns="http://www.w3.org/2000/svg">
<mask id="mask0_1143_2057" style="mask-type:luminance" maskUnits="userSpaceOnUse" x="0" y="0" width="50" height="50">
<path d="M0 0H50V50H0V0Z" fill="white"/>
</mask>
<g mask="url(#mask0_1143_2057)">
<path d="M8.71223 41.0858C8.54186 41.165 8.35081 41.1904 8.1707 41.2696C7.84944 41.3996 7.62797 41.5818 7.44787 41.1127C7.30671 40.7593 7.25681 40.341 7.08645 40.0145C6.91608 39.6738 6.47435 39.5835 6.54371 39.1001C6.57413 38.864 6.67513 38.6421 6.6946 38.3933C6.71529 38.1841 6.71529 37.9892 6.71529 37.78C6.58387 37.6358 6.44392 37.4916 6.31372 37.3743C6.04235 37.1255 6.04235 36.891 5.9523 36.4853C5.88172 36.1589 5.79167 35.8847 5.56045 35.7009C5.30977 35.5186 5.12845 35.5836 5.0384 35.1922C4.95809 34.8514 4.89724 34.7342 4.64656 34.59C4.44577 34.487 4.16467 34.395 4.01499 34.2112C3.60246 33.7025 3.69373 32.8008 3.23131 32.3555C3.02078 32.1606 2.74941 32.1336 2.60947 31.8325C2.5182 31.6233 2.42815 31.3634 2.35879 31.1146C2.10689 30.9831 1.8769 30.9831 1.53495 31.01C1.09321 31.0354 0.752481 30.7359 0.380109 30.4744C0.240166 30.3825 -0.000780825 30.2779 0.0186896 30.0291C0.0393768 29.7819 0.370374 29.5457 0.471377 29.3635C0.752481 28.8928 0.59185 28.3176 1.00316 27.9642C1.19422 27.8073 1.4449 27.6504 1.66516 27.6773C1.85621 27.7027 1.98642 27.8739 2.16774 27.9261C2.57905 28.0688 2.91978 27.5458 3.2812 27.3905C3.47225 27.3113 3.64262 27.2717 3.7132 26.9975C3.8142 26.6314 3.70346 26.1481 3.68278 25.782C3.63288 24.9976 3.66331 24.1624 3.68278 23.3653C3.69373 22.7377 4.06488 22.359 4.12451 21.7568C4.19509 21.0516 4.28514 20.6982 4.69767 20.2021C4.63683 20.0056 4.58693 19.8091 4.51635 19.6269C4.4263 19.3781 4.31556 19.2355 4.33625 18.947C4.35572 18.7125 4.41657 18.3987 4.58693 18.2941C4.81693 18.1626 4.97756 18.4114 5.0883 18.0453C5.15888 17.8235 5.15888 17.5493 5.34993 17.4051C5.59088 17.2355 5.72108 17.5366 5.90119 17.6792C6.35387 18.058 6.49382 17.2878 6.58387 16.8425C6.64471 16.5683 6.72503 16.3465 6.81508 16.1373C6.77492 15.8235 6.72503 15.4971 6.8455 15.2102C6.97571 14.8965 7.20692 14.7126 7.27628 14.3465C7.33713 14.0201 7.20692 13.6667 7.29697 13.3672C7.39676 13.0407 7.69855 12.9092 7.8896 12.6873C8.26076 12.2436 8.24007 11.4845 8.48101 10.9235C8.76212 10.2833 9.06391 9.65573 9.64559 9.51152C10.108 9.39425 10.5497 9.21042 10.9805 8.98856C10.9708 8.87129 10.9611 8.75402 10.9611 8.62248C10.9708 8.20411 11.0718 7.91727 11.0109 7.4989C10.9513 7.05518 11.0414 6.88403 11.2117 6.54489C11.3626 6.25806 11.4624 5.87772 11.5427 5.55126C11.6231 5.25175 11.6632 4.92371 11.8944 4.81912C11.8749 4.35003 11.8238 3.83975 11.864 3.39602C11.8944 2.97765 12.2656 2.67655 12.5674 2.58464C12.9689 2.46737 13.3705 2.68923 13.7818 2.54502C14.153 2.41507 14.4536 2.2978 14.8454 2.42775C15.1472 2.53234 15.2677 2.83344 15.3772 3.1599C15.7897 2.36278 16.1511 1.57833 16.3519 0.624321C16.3811 0.494372 16.4116 0.076002 16.5418 0.0490616C16.6525 0.0237058 16.7924 0.337484 16.8837 0.402458C17.1745 0.651261 17.5457 0.50705 17.8365 0.781209C18.1176 1.05537 18.2685 1.43571 18.5302 1.72254C18.8405 1.57833 19.1216 1.67025 19.4526 1.59101C19.7848 1.52604 19.9649 1.06963 20.2959 1.03001C20.6378 0.990394 20.9287 1.39609 21.2305 1.53871C21.5907 1.70986 21.8925 1.56565 22.2442 1.46106C22.6348 1.34379 22.8356 1.59101 23.1775 1.80019C23.5183 1.9967 23.8797 1.83981 24.2107 1.9967C24.5526 2.15359 24.7729 2.55928 25.1452 2.64961C25.5067 2.74153 25.7975 2.70191 26.0883 3.04263C26.6506 3.72248 26.9219 4.5719 27.2931 5.39438C28.0463 5.70815 28.7181 6.55757 29.301 7.1978C29.4409 7.35469 29.6015 7.4989 29.6514 7.73345C29.7123 7.99493 29.6819 8.27067 29.7622 8.51789C29.9228 9.00123 30.1942 9.31501 30.4947 9.64147C30.6663 9.83797 31.3381 10.5432 31.1275 10.8189C31.0071 10.8443 30.816 10.9235 30.7564 11.0804C30.6761 11.3023 30.7868 11.4592 30.6262 11.6541C30.5154 11.7983 30.3852 11.8506 30.3146 12.0471C30.2441 12.2563 30.2745 12.4655 30.1735 12.6747C30.0834 12.8569 29.9228 13.0011 29.8425 13.1834C29.7524 13.3925 29.7926 13.5494 29.6514 13.7333C29.4007 14.0724 29.1598 14.2562 29.1099 14.7776C29.0698 15.1706 29.06 15.627 28.8994 15.9931C28.869 16.3338 28.8592 16.6999 29.0199 16.9344C29.1403 17.1183 29.6624 17.7189 29.8327 17.6396C30.0238 17.562 30.0128 17.2751 30.2647 17.2878C30.4546 17.3005 30.586 17.4178 30.7868 17.3797C31.158 17.3132 31.5486 17.2228 31.9003 17.0517C32.432 16.8045 32.5927 17.1436 32.8945 17.6792C32.7132 17.8884 32.5428 18.0453 32.5026 18.3718C32.4625 18.6459 32.3517 19.039 32.3822 19.3258C32.5635 19.3258 32.7643 19.6522 32.8044 19.8614C32.8446 20.1229 32.673 20.4113 32.7935 20.6855C32.9139 20.9597 33.1658 21.1435 33.3058 21.4303C33.436 21.7045 33.5565 21.9406 33.7475 22.1498C33.9483 22.359 34.1394 22.4762 34.39 22.5539C34.4399 22.7631 34.4205 23.0246 34.4801 23.2337C34.53 23.4176 34.6505 23.5602 34.7417 23.7171C34.8622 23.9263 34.9827 24.1228 35.0727 24.3716C35.1031 24.4366 35.1226 24.5538 35.1628 24.6584C35.3331 24.5665 35.5145 24.5142 35.6946 24.6061C35.9562 24.7503 36.1059 25.0641 36.2665 25.3256C36.4381 25.5998 36.6389 25.8343 36.819 26.0831C37.0806 25.9658 37.2704 26.0039 37.5515 26.1608C37.8533 26.3319 38.1636 26.4492 38.4752 26.6314C39.0982 26.9975 39.8405 27.1671 40.5025 27.4285C41.3458 27.755 42.1295 28.3303 42.9728 28.671C43.6653 28.9451 44.3674 29.0893 45.061 29.3366C45.5928 29.5204 46.1039 29.7549 46.5457 30.1606C47.2283 30.0434 49.3871 30.121 49.9992 30.1337L40.0316 43.7783C39.6604 43.7909 39.299 43.8432 38.9169 43.8559C38.345 43.8702 37.8034 43.8036 37.251 43.699C36.7192 43.6087 36.3675 43.726 35.8953 44.0128C35.063 44.5231 33.627 44.7053 33.5565 46.1696C32.9249 46.3265 32.4625 47.084 31.7895 47.1759C31.2882 47.2409 30.4254 46.8891 30.0128 47.3724C29.7926 47.6339 29.7719 47.9477 29.4214 47.8558C29.1196 47.7766 28.869 47.7243 28.5672 47.7385C28.2666 47.7385 27.8954 47.8685 27.5937 47.8162C27.4038 47.7766 27.1823 47.5816 27.012 47.4644C26.771 47.2932 26.8416 47.0317 26.6907 46.7702C26.5496 46.523 26.3086 46.4058 26.109 46.2092C25.9581 46.3138 25.7975 46.4058 25.6369 46.4961C25.2852 46.6926 24.914 46.8495 24.5624 47.0317C24.2216 47.2029 23.7799 47.2679 23.489 47.5674C23.2578 47.8035 23.1471 48.1949 22.956 48.4707C22.7358 48.7971 22.6153 49.1363 22.434 49.5023C22.2539 49.8684 21.9728 49.908 21.6613 49.9603C21.2901 50.0253 21.0589 49.9461 20.7279 49.7115C20.3872 49.4627 20.2667 49.58 19.9552 49.8034C19.4331 50.1822 18.8709 49.515 18.5399 48.954C18.4292 49.0586 18.3294 49.1632 18.2089 49.2282C17.9473 49.3581 17.727 49.1109 17.4751 49.1759C17.2853 49.2282 17.1745 49.5293 16.964 49.4627C16.7523 49.3977 16.6026 48.992 16.4724 48.8098C16.1304 48.3391 15.7496 48 15.337 47.6466C14.5448 46.9668 13.7721 46.2615 13.0383 45.504C12.8679 45.4771 12.6878 45.4375 12.5163 45.4121C12.2059 45.3598 11.8737 45.3725 11.5537 45.3725C11.2726 45.3725 10.871 45.4898 10.6094 45.3994C10.3088 45.2806 10.4183 44.7719 9.99727 44.8242C9.74659 44.8622 9.4448 45.2029 9.19412 45.0461C9.17465 44.7053 9.21481 44.3662 9.21481 44.0271C9.21481 43.726 9.19412 43.4249 9.14423 43.1254C9.1138 42.9811 9.04322 42.8369 9.07365 42.68C9.10407 42.5358 9.22454 42.4709 9.22454 42.314C9.22454 42.119 9.07364 41.7007 9.00306 41.5168C8.90328 41.4265 8.81323 41.2427 8.71223 41.0858Z" fill="#30AF5B"/>
</g>
</svg>
