<svg width="584" height="448" viewBox="0 0 584 448" fill="none" xmlns="http://www.w3.org/2000/svg">
<mask id="mask0_1148_452" style="mask-type:luminance" maskUnits="userSpaceOnUse" x="0" y="0" width="584" height="448">
<path d="M0 0H583.418V448H0V0Z" fill="white"/>
</mask>
<g mask="url(#mask0_1148_452)">
<path d="M101.665 368.129C99.6773 368.839 97.448 369.067 95.3465 369.777C91.5979 370.941 89.0137 372.574 86.9122 368.371C85.2651 365.204 84.6829 361.456 82.695 358.531C80.7071 355.478 75.5528 354.669 76.3622 350.338C76.7171 348.222 77.8957 346.234 78.1229 344.005C78.3642 342.131 78.3642 340.384 78.3642 338.51C76.8307 337.218 75.1978 335.926 73.6785 334.875C70.5121 332.646 70.5121 330.544 69.4613 326.909C68.6378 323.984 67.587 321.528 64.8892 319.88C61.9641 318.248 59.8484 318.83 58.7977 315.322C57.8606 312.27 57.1506 311.219 54.2255 309.927C51.8827 309.004 48.6026 308.18 46.8561 306.533C42.0426 301.975 43.1075 293.896 37.7118 289.906C35.2554 288.159 32.0889 287.918 30.456 285.22C29.3911 283.346 28.3403 281.017 27.531 278.788C24.5917 277.609 21.9081 277.609 17.9181 277.851C12.7638 278.078 8.788 275.394 4.44303 273.051C2.81012 272.228 -0.00132826 271.291 0.225859 269.061C0.467246 266.846 4.32944 264.731 5.50797 263.098C8.788 258.881 6.9137 253.726 11.713 250.56C13.9423 249.154 16.8674 247.748 19.4374 247.99C21.6667 248.217 23.186 249.75 25.3017 250.219C30.101 251.497 34.0768 246.811 38.294 245.42C40.5233 244.71 42.5112 244.355 43.3347 241.898C44.5133 238.618 43.2211 234.287 42.9798 231.007C42.3976 223.979 42.7526 216.496 42.9798 209.354C43.1075 203.731 47.4383 200.337 48.1341 194.941C48.9576 188.623 50.0084 185.456 54.8219 181.012C54.112 179.251 53.5298 177.491 52.7062 175.858C51.6555 173.628 50.3634 172.35 50.6047 169.766C50.8319 167.665 51.5419 164.853 53.5298 163.916C56.2134 162.738 58.0877 164.967 59.3799 161.687C60.2034 159.699 60.2034 157.242 62.4327 155.95C65.2442 154.431 66.7635 157.129 68.865 158.407C74.1471 161.8 75.78 154.9 76.8307 150.91C77.5407 148.453 78.4778 146.465 79.5286 144.591C79.06 141.779 78.4778 138.854 79.8836 136.284C81.4029 133.473 84.1007 131.826 84.9101 128.546C85.6201 125.621 84.1007 122.454 85.1515 119.771C86.3158 116.846 89.8372 115.667 92.0665 113.679C96.3973 109.703 96.1559 102.902 98.9673 97.8754C102.247 92.1389 105.769 86.516 112.556 85.2239C117.952 84.1732 123.106 82.526 128.133 80.5382C128.019 79.4874 127.905 78.4367 127.905 77.2581C128.019 73.5095 129.197 70.9395 128.488 67.1909C127.792 63.2151 128.843 61.6816 130.83 58.6429C132.591 56.0729 133.755 52.6651 134.693 49.74C135.63 47.0564 136.098 44.1171 138.796 43.18C138.569 38.977 137.973 34.4048 138.441 30.4291C138.796 26.6805 143.127 23.9826 146.648 23.159C151.334 22.1083 156.02 24.0962 160.819 22.8041C165.15 21.6397 168.657 20.589 173.229 21.7533C176.751 22.6905 178.156 25.3883 179.434 28.3134C184.248 21.1712 188.465 14.1425 190.808 5.5946C191.149 4.43026 191.504 0.681661 193.023 0.440275C194.315 0.213087 195.948 3.02454 197.013 3.6067C200.407 5.83598 204.737 4.54385 208.131 7.00032C211.411 9.45679 213.172 12.8646 216.225 15.4347C219.845 14.1425 223.125 14.9661 226.988 14.2561C230.864 13.674 232.966 9.58458 236.828 9.2296C240.818 8.87462 244.211 12.5096 247.733 13.7876C251.936 15.3211 255.457 14.0289 259.561 13.0918C264.119 12.041 266.462 14.2561 270.451 16.1304C274.427 17.8911 278.644 16.4854 282.507 17.8911C286.497 19.2969 289.067 22.9319 293.412 23.7412C297.629 24.5648 301.022 24.2098 304.416 27.2626C310.976 33.3541 314.143 40.9649 318.473 48.3343C327.263 51.1457 335.101 58.7565 341.902 64.493C343.535 65.8987 345.409 67.1909 345.991 69.2924C346.701 71.6352 346.346 74.1059 347.284 76.321C349.158 80.6517 352.324 83.4632 355.831 86.3882C357.834 88.1489 365.672 94.4676 363.215 96.9383C361.809 97.1655 359.58 97.8754 358.884 99.2811C357.947 101.269 359.239 102.675 357.365 104.421C356.073 105.713 354.554 106.182 353.73 107.943C352.906 109.817 353.261 111.691 352.083 113.566C351.032 115.198 349.158 116.491 348.221 118.124C347.17 119.998 347.639 121.404 345.991 123.051C343.066 126.089 340.255 127.736 339.673 132.408C339.204 135.929 339.091 140.019 337.216 143.299C336.861 146.352 336.748 149.632 338.622 151.733C340.028 153.38 346.119 158.762 348.107 158.052C350.336 157.356 350.209 154.786 353.148 154.9C355.363 155.013 356.896 156.064 359.239 155.723C363.57 155.127 368.128 154.317 372.232 152.784C378.437 150.569 380.311 153.607 383.832 158.407C381.717 160.281 379.729 161.687 379.26 164.612C378.792 167.068 377.5 170.59 377.854 173.16C379.97 173.16 382.313 176.085 382.782 177.959C383.25 180.302 381.248 182.886 382.654 185.343C384.06 187.799 386.999 189.446 388.632 192.016C390.151 194.473 391.557 196.588 393.786 198.463C396.129 200.337 398.358 201.388 401.283 202.084C401.865 203.958 401.638 206.301 402.334 208.175C402.916 209.822 404.322 211.1 405.387 212.506C406.793 214.38 408.198 216.141 409.249 218.37C409.604 218.952 409.831 220.003 410.3 220.94C412.288 220.117 414.403 219.648 416.505 220.472C419.558 221.764 421.304 224.575 423.178 226.918C425.181 229.375 427.523 231.476 429.625 233.705C432.678 232.655 434.893 232.995 438.173 234.401C441.694 235.935 445.315 236.985 448.95 238.618C456.22 241.898 464.882 243.418 472.606 245.76C482.446 248.685 491.59 253.84 501.43 256.893C509.51 259.349 517.703 260.641 525.796 262.856C532.001 264.503 537.965 266.605 543.119 270.24C551.085 269.189 576.275 269.885 583.417 269.999L467.111 392.254C462.78 392.368 458.563 392.836 454.104 392.95C447.431 393.077 441.112 392.481 434.666 391.544C428.461 390.735 424.357 391.785 418.848 394.355C409.135 398.928 392.38 400.56 391.557 413.681C384.187 415.086 378.792 421.874 370.939 422.697C365.089 423.279 355.022 420.127 350.209 424.458C347.639 426.801 347.397 429.612 343.308 428.789C339.786 428.079 336.861 427.61 333.34 427.738C329.833 427.738 325.502 428.902 321.981 428.434C319.765 428.079 317.181 426.332 315.193 425.281C312.382 423.748 313.205 421.405 311.445 419.062C309.798 416.847 306.986 415.796 304.657 414.036C302.897 414.973 301.022 415.796 299.148 416.606C295.045 418.366 290.714 419.772 286.61 421.405C282.634 422.938 277.48 423.521 274.086 426.204C271.389 428.32 270.097 431.827 267.867 434.298C265.297 437.223 263.891 440.262 261.776 443.542C259.674 446.822 256.394 447.177 252.759 447.645C248.428 448.227 245.731 447.517 241.868 445.416C237.893 443.187 236.487 444.237 232.852 446.239C226.76 449.633 220.2 443.655 216.338 438.629C215.046 439.566 213.882 440.503 212.476 441.085C209.423 442.249 206.853 440.034 203.914 440.617C201.699 441.085 200.407 443.783 197.95 443.187C195.48 442.604 193.733 438.969 192.214 437.336C188.224 433.119 183.779 430.081 178.966 426.914C169.722 420.823 160.706 414.504 152.143 407.717C150.156 407.476 148.054 407.121 146.052 406.893C142.431 406.425 138.555 406.538 134.82 406.538C131.54 406.538 126.855 407.589 123.802 406.78C120.295 405.715 121.573 401.157 116.66 401.625C113.735 401.966 110.213 405.019 107.288 403.613C107.061 400.56 107.529 397.522 107.529 394.483C107.529 391.785 107.288 389.088 106.706 386.404C106.351 385.112 105.527 383.82 105.882 382.414C106.237 381.122 107.643 380.54 107.643 379.134C107.643 377.387 105.882 373.639 105.059 371.992C103.894 371.182 102.844 369.535 101.665 368.129Z" fill="#FCE642"/>
</g>
<mask id="mask1_1148_452" style="mask-type:luminance" maskUnits="userSpaceOnUse" x="213" y="142" width="57" height="49">
<path d="M213.906 142.75H269.906V190.75H213.906V142.75Z" fill="white"/>
</mask>
<g mask="url(#mask1_1148_452)">
<mask id="mask2_1148_452" style="mask-type:luminance" maskUnits="userSpaceOnUse" x="214" y="140" width="56" height="54">
<path d="M214.88 166.859C214.88 165.104 215.052 163.365 215.401 161.646C215.75 159.922 216.265 158.25 216.942 156.63C217.625 155.01 218.463 153.469 219.453 152.01C220.442 150.552 221.562 149.203 222.823 147.964C224.083 146.724 225.453 145.615 226.932 144.641C228.416 143.667 229.979 142.844 231.625 142.172C233.271 141.5 234.963 140.99 236.713 140.651C238.458 140.307 240.224 140.135 242 140.135C243.781 140.135 245.547 140.307 247.291 140.651C249.041 140.99 250.734 141.5 252.38 142.172C254.026 142.844 255.588 143.667 257.073 144.641C258.552 145.615 259.922 146.724 261.182 147.964C262.442 149.203 263.562 150.552 264.552 152.01C265.541 153.469 266.38 155.01 267.062 156.63C267.739 158.25 268.255 159.922 268.604 161.646C268.953 163.365 269.125 165.104 269.125 166.859C269.125 168.609 268.953 170.349 268.604 172.068C268.255 173.792 267.739 175.464 267.062 177.083C266.38 178.703 265.541 180.245 264.552 181.703C263.562 183.162 262.442 184.51 261.182 185.75C259.922 186.995 258.552 188.099 257.073 189.073C255.588 190.052 254.026 190.875 252.38 191.547C250.734 192.214 249.041 192.724 247.291 193.063C245.547 193.406 243.781 193.578 242 193.578C240.224 193.578 238.458 193.406 236.713 193.063C234.963 192.724 233.271 192.214 231.625 191.547C229.979 190.875 228.416 190.052 226.932 189.073C225.453 188.099 224.083 186.995 222.823 185.75C221.562 184.51 220.442 183.162 219.453 181.703C218.463 180.245 217.625 178.703 216.942 177.083C216.265 175.464 215.75 173.792 215.401 172.068C215.052 170.349 214.88 168.609 214.88 166.859Z" fill="white"/>
</mask>
<g mask="url(#mask2_1148_452)">
<path d="M195.474 143.693H288.468V189.5H195.474V143.693Z" fill="#D63649"/>
</g>
</g>
<mask id="mask3_1148_452" style="mask-type:luminance" maskUnits="userSpaceOnUse" x="213" y="142" width="57" height="33">
<path d="M213.906 142.75H269.906V174.75H213.906V142.75Z" fill="white"/>
</mask>
<g mask="url(#mask3_1148_452)">
<mask id="mask4_1148_452" style="mask-type:luminance" maskUnits="userSpaceOnUse" x="214" y="140" width="56" height="54">
<path d="M214.88 166.859C214.88 165.104 215.052 163.365 215.401 161.646C215.75 159.922 216.265 158.25 216.942 156.63C217.625 155.01 218.463 153.469 219.453 152.01C220.442 150.552 221.562 149.203 222.823 147.964C224.083 146.724 225.453 145.615 226.932 144.641C228.416 143.667 229.979 142.844 231.625 142.172C233.271 141.5 234.963 140.99 236.713 140.651C238.458 140.307 240.224 140.135 242 140.135C243.781 140.135 245.547 140.307 247.291 140.651C249.041 140.99 250.734 141.5 252.38 142.172C254.026 142.844 255.588 143.667 257.073 144.641C258.552 145.615 259.922 146.724 261.182 147.964C262.442 149.203 263.562 150.552 264.552 152.01C265.541 153.469 266.38 155.01 267.062 156.63C267.739 158.25 268.255 159.922 268.604 161.646C268.953 163.365 269.125 165.104 269.125 166.859C269.125 168.609 268.953 170.349 268.604 172.068C268.255 173.792 267.739 175.464 267.062 177.083C266.38 178.703 265.541 180.245 264.552 181.703C263.562 183.162 262.442 184.51 261.182 185.75C259.922 186.995 258.552 188.099 257.073 189.073C255.588 190.052 254.026 190.875 252.38 191.547C250.734 192.214 249.041 192.724 247.291 193.063C245.547 193.406 243.781 193.578 242 193.578C240.224 193.578 238.458 193.406 236.713 193.063C234.963 192.724 233.271 192.214 231.625 191.547C229.979 190.875 228.416 190.052 226.932 189.073C225.453 188.099 224.083 186.995 222.823 185.75C221.562 184.51 220.442 183.162 219.453 181.703C218.463 180.245 217.625 178.703 216.942 177.083C216.265 175.464 215.75 173.792 215.401 172.068C215.052 170.349 214.88 168.609 214.88 166.859Z" fill="white"/>
</mask>
<g mask="url(#mask4_1148_452)">
<path d="M195.474 143.932H288.468V174.474H195.474V143.932Z" fill="#F9DF5F"/>
</g>
</g>
<mask id="mask5_1148_452" style="mask-type:luminance" maskUnits="userSpaceOnUse" x="213" y="144" width="57" height="17">
<path d="M213.906 144.083H269.906V160.083H213.906V144.083Z" fill="white"/>
</mask>
<g mask="url(#mask5_1148_452)">
<mask id="mask6_1148_452" style="mask-type:luminance" maskUnits="userSpaceOnUse" x="214" y="140" width="56" height="54">
<path d="M214.88 166.859C214.88 165.104 215.052 163.365 215.401 161.646C215.75 159.922 216.265 158.25 216.942 156.63C217.625 155.01 218.463 153.469 219.453 152.01C220.442 150.552 221.562 149.203 222.823 147.964C224.083 146.724 225.453 145.615 226.932 144.641C228.416 143.667 229.979 142.844 231.625 142.172C233.271 141.5 234.963 140.99 236.713 140.651C238.458 140.307 240.224 140.135 242 140.135C243.781 140.135 245.547 140.307 247.291 140.651C249.041 140.99 250.734 141.5 252.38 142.172C254.026 142.844 255.588 143.667 257.073 144.641C258.552 145.615 259.922 146.724 261.182 147.964C262.442 149.203 263.562 150.552 264.552 152.01C265.541 153.469 266.38 155.01 267.062 156.63C267.739 158.25 268.255 159.922 268.604 161.646C268.953 163.365 269.125 165.104 269.125 166.859C269.125 168.609 268.953 170.349 268.604 172.068C268.255 173.792 267.739 175.464 267.062 177.083C266.38 178.703 265.541 180.245 264.552 181.703C263.562 183.162 262.442 184.51 261.182 185.75C259.922 186.995 258.552 188.099 257.073 189.073C255.588 190.052 254.026 190.875 252.38 191.547C250.734 192.214 249.041 192.724 247.291 193.063C245.547 193.406 243.781 193.578 242 193.578C240.224 193.578 238.458 193.406 236.713 193.063C234.963 192.724 233.271 192.214 231.625 191.547C229.979 190.875 228.416 190.052 226.932 189.073C225.453 188.099 224.083 186.995 222.823 185.75C221.562 184.51 220.442 183.162 219.453 181.703C218.463 180.245 217.625 178.703 216.942 177.083C216.265 175.464 215.75 173.792 215.401 172.068C215.052 170.349 214.88 168.609 214.88 166.859Z" fill="white"/>
</mask>
<g mask="url(#mask6_1148_452)">
<path d="M195.474 144.167H288.468V159.438H195.474V144.167Z" fill="#429B5B"/>
</g>
</g>
<mask id="mask7_1148_452" style="mask-type:luminance" maskUnits="userSpaceOnUse" x="227" y="153" width="30" height="29">
<path d="M227.24 153.417H256.574V181.417H227.24V153.417Z" fill="white"/>
</mask>
<g mask="url(#mask7_1148_452)">
<mask id="mask8_1148_452" style="mask-type:luminance" maskUnits="userSpaceOnUse" x="214" y="140" width="56" height="54">
<path d="M214.881 166.859C214.881 165.104 215.053 163.365 215.402 161.646C215.751 159.922 216.266 158.25 216.943 156.63C217.626 155.01 218.464 153.469 219.454 152.01C220.443 150.552 221.563 149.203 222.824 147.964C224.084 146.724 225.454 145.615 226.933 144.641C228.417 143.667 229.98 142.844 231.626 142.172C233.271 141.5 234.964 140.99 236.714 140.651C238.459 140.307 240.225 140.135 242.001 140.135C243.782 140.135 245.548 140.307 247.292 140.651C249.042 140.99 250.735 141.5 252.381 142.172C254.027 142.844 255.589 143.667 257.074 144.641C258.553 145.615 259.923 146.724 261.183 147.964C262.443 149.203 263.563 150.552 264.553 152.01C265.542 153.469 266.381 155.01 267.063 156.63C267.74 158.25 268.256 159.922 268.605 161.646C268.954 163.365 269.126 165.104 269.126 166.859C269.126 168.609 268.954 170.349 268.605 172.068C268.256 173.792 267.74 175.464 267.063 177.083C266.381 178.703 265.542 180.245 264.553 181.703C263.563 183.162 262.443 184.51 261.183 185.75C259.923 186.995 258.553 188.099 257.074 189.073C255.589 190.052 254.027 190.875 252.381 191.547C250.735 192.214 249.042 192.724 247.292 193.063C245.548 193.406 243.782 193.578 242.001 193.578C240.225 193.578 238.459 193.406 236.714 193.063C234.964 192.724 233.271 192.214 231.626 191.547C229.98 190.875 228.417 190.052 226.933 189.073C225.454 188.099 224.084 186.995 222.824 185.75C221.563 184.51 220.443 183.162 219.454 181.703C218.464 180.245 217.626 178.703 216.943 177.083C216.266 175.464 215.751 173.792 215.402 172.068C215.053 170.349 214.881 168.609 214.881 166.859Z" fill="white"/>
</mask>
<g mask="url(#mask8_1148_452)">
<path d="M241.975 153.495C234.485 153.495 228.412 159.479 228.412 166.859C228.412 174.234 234.485 180.219 241.975 180.219C249.464 180.219 255.537 174.234 255.537 166.859C255.537 159.479 249.464 153.495 241.975 153.495Z" fill="#2F61A8"/>
</g>
</g>
<mask id="mask9_1148_452" style="mask-type:luminance" maskUnits="userSpaceOnUse" x="231" y="157" width="11" height="12">
<path d="M231.24 157.417H241.907V168.083H231.24V157.417Z" fill="white"/>
</mask>
<g mask="url(#mask9_1148_452)">
<mask id="mask10_1148_452" style="mask-type:luminance" maskUnits="userSpaceOnUse" x="214" y="140" width="56" height="54">
<path d="M214.881 166.859C214.881 165.104 215.053 163.365 215.402 161.646C215.751 159.922 216.266 158.25 216.943 156.63C217.626 155.01 218.464 153.469 219.454 152.01C220.443 150.552 221.563 149.203 222.824 147.964C224.084 146.724 225.454 145.615 226.933 144.641C228.417 143.667 229.98 142.844 231.626 142.172C233.271 141.5 234.964 140.99 236.714 140.651C238.459 140.307 240.225 140.135 242.001 140.135C243.782 140.135 245.548 140.307 247.292 140.651C249.042 140.99 250.735 141.5 252.381 142.172C254.027 142.844 255.589 143.667 257.074 144.641C258.553 145.615 259.923 146.724 261.183 147.964C262.443 149.203 263.563 150.552 264.553 152.01C265.542 153.469 266.381 155.01 267.063 156.63C267.74 158.25 268.256 159.922 268.605 161.646C268.954 163.365 269.126 165.104 269.126 166.859C269.126 168.609 268.954 170.349 268.605 172.068C268.256 173.792 267.74 175.464 267.063 177.083C266.381 178.703 265.542 180.245 264.553 181.703C263.563 183.162 262.443 184.51 261.183 185.75C259.923 186.995 258.553 188.099 257.074 189.073C255.589 190.052 254.027 190.875 252.381 191.547C250.735 192.214 249.042 192.724 247.292 193.063C245.548 193.406 243.782 193.578 242.001 193.578C240.225 193.578 238.459 193.406 236.714 193.063C234.964 192.724 233.271 192.214 231.626 191.547C229.98 190.875 228.417 190.052 226.933 189.073C225.454 188.099 224.084 186.995 222.824 185.75C221.563 184.51 220.443 183.162 219.454 181.703C218.464 180.245 217.626 178.703 216.943 177.083C216.266 175.464 215.751 173.792 215.402 172.068C215.053 170.349 214.881 168.609 214.881 166.859Z" fill="white"/>
</mask>
<g mask="url(#mask10_1148_452)">
<path d="M238.433 166.854L239.203 167.406L241.792 159.552L241.323 158.104L239.537 163.516H231.651L232.896 164.401H239.24L238.433 166.854Z" fill="#F9DF5F"/>
</g>
</g>
<mask id="mask11_1148_452" style="mask-type:luminance" maskUnits="userSpaceOnUse" x="239" y="156" width="13" height="10">
<path d="M239.24 156.083H251.24V165.417H239.24V156.083Z" fill="white"/>
</mask>
<g mask="url(#mask11_1148_452)">
<mask id="mask12_1148_452" style="mask-type:luminance" maskUnits="userSpaceOnUse" x="214" y="140" width="56" height="54">
<path d="M214.881 166.859C214.881 165.104 215.053 163.365 215.402 161.646C215.751 159.922 216.266 158.25 216.943 156.63C217.626 155.01 218.464 153.469 219.454 152.01C220.443 150.552 221.563 149.203 222.824 147.964C224.084 146.724 225.454 145.615 226.933 144.641C228.417 143.667 229.98 142.844 231.626 142.172C233.271 141.5 234.964 140.99 236.714 140.651C238.459 140.307 240.225 140.135 242.001 140.135C243.782 140.135 245.548 140.307 247.292 140.651C249.042 140.99 250.735 141.5 252.381 142.172C254.027 142.844 255.589 143.667 257.074 144.641C258.553 145.615 259.923 146.724 261.183 147.964C262.443 149.203 263.563 150.552 264.553 152.01C265.542 153.469 266.381 155.01 267.063 156.63C267.74 158.25 268.256 159.922 268.605 161.646C268.954 163.365 269.126 165.104 269.126 166.859C269.126 168.609 268.954 170.349 268.605 172.068C268.256 173.792 267.74 175.464 267.063 177.083C266.381 178.703 265.542 180.245 264.553 181.703C263.563 183.162 262.443 184.51 261.183 185.75C259.923 186.995 258.553 188.099 257.074 189.073C255.589 190.052 254.027 190.875 252.381 191.547C250.735 192.214 249.042 192.724 247.292 193.063C245.548 193.406 243.782 193.578 242.001 193.578C240.225 193.578 238.459 193.406 236.714 193.063C234.964 192.724 233.271 192.214 231.626 191.547C229.98 190.875 228.417 190.052 226.933 189.073C225.454 188.099 224.084 186.995 222.824 185.75C221.563 184.51 220.443 183.162 219.454 181.703C218.464 180.245 217.626 178.703 216.943 177.083C216.266 175.464 215.751 173.792 215.402 172.068C215.053 170.349 214.881 168.609 214.881 166.859Z" fill="white"/>
</mask>
<g mask="url(#mask12_1148_452)">
<path d="M240.845 163.516L240.548 164.401H248.933L250.173 163.516H244.412L241.975 156.125L241.496 157.568L243.459 163.516H240.845Z" fill="#F9DF5F"/>
</g>
</g>
<mask id="mask13_1148_452" style="mask-type:luminance" maskUnits="userSpaceOnUse" x="243" y="162" width="10" height="13">
<path d="M243.24 162.75H252.574V174.75H243.24V162.75Z" fill="white"/>
</mask>
<g mask="url(#mask13_1148_452)">
<mask id="mask14_1148_452" style="mask-type:luminance" maskUnits="userSpaceOnUse" x="214" y="140" width="56" height="54">
<path d="M214.881 166.859C214.881 165.104 215.053 163.365 215.402 161.646C215.751 159.922 216.266 158.25 216.943 156.63C217.626 155.01 218.464 153.469 219.454 152.01C220.443 150.552 221.563 149.203 222.824 147.964C224.084 146.724 225.454 145.615 226.933 144.641C228.417 143.667 229.98 142.844 231.626 142.172C233.271 141.5 234.964 140.99 236.714 140.651C238.459 140.307 240.225 140.135 242.001 140.135C243.782 140.135 245.548 140.307 247.292 140.651C249.042 140.99 250.735 141.5 252.381 142.172C254.027 142.844 255.589 143.667 257.074 144.641C258.553 145.615 259.923 146.724 261.183 147.964C262.443 149.203 263.563 150.552 264.553 152.01C265.542 153.469 266.381 155.01 267.063 156.63C267.74 158.25 268.256 159.922 268.605 161.646C268.954 163.365 269.126 165.104 269.126 166.859C269.126 168.609 268.954 170.349 268.605 172.068C268.256 173.792 267.74 175.464 267.063 177.083C266.381 178.703 265.542 180.245 264.553 181.703C263.563 183.162 262.443 184.51 261.183 185.75C259.923 186.995 258.553 188.099 257.074 189.073C255.589 190.052 254.027 190.875 252.381 191.547C250.735 192.214 249.042 192.724 247.292 193.063C245.548 193.406 243.782 193.578 242.001 193.578C240.225 193.578 238.459 193.406 236.714 193.063C234.964 192.724 233.271 192.214 231.626 191.547C229.98 190.875 228.417 190.052 226.933 189.073C225.454 188.099 224.084 186.995 222.824 185.75C221.563 184.51 220.443 183.162 219.454 181.703C218.464 180.245 217.626 178.703 216.943 177.083C216.266 175.464 215.751 173.792 215.402 172.068C215.053 170.349 214.881 168.609 214.881 166.859Z" fill="white"/>
</mask>
<g mask="url(#mask14_1148_452)">
<path d="M244.813 164.734H243.86L246.454 172.589L247.694 173.479L245.918 168.078L252.287 163.516H250.756L245.621 167.188L244.813 164.734Z" fill="#F9DF5F"/>
</g>
</g>
<mask id="mask15_1148_452" style="mask-type:luminance" maskUnits="userSpaceOnUse" x="236" y="166" width="13" height="11">
<path d="M236.574 166.75H248.574V176.083H236.574V166.75Z" fill="white"/>
</mask>
<g mask="url(#mask15_1148_452)">
<mask id="mask16_1148_452" style="mask-type:luminance" maskUnits="userSpaceOnUse" x="214" y="140" width="56" height="54">
<path d="M214.882 166.859C214.882 165.104 215.054 163.365 215.403 161.646C215.752 159.922 216.267 158.25 216.944 156.63C217.627 155.01 218.465 153.469 219.455 152.01C220.444 150.552 221.564 149.203 222.825 147.964C224.085 146.724 225.455 145.615 226.934 144.641C228.418 143.667 229.981 142.844 231.627 142.172C233.272 141.5 234.965 140.99 236.715 140.651C238.46 140.307 240.226 140.135 242.002 140.135C243.783 140.135 245.549 140.307 247.293 140.651C249.043 140.99 250.736 141.5 252.382 142.172C254.028 142.844 255.59 143.667 257.075 144.641C258.554 145.615 259.924 146.724 261.184 147.964C262.444 149.203 263.564 150.552 264.554 152.01C265.543 153.469 266.382 155.01 267.064 156.63C267.741 158.25 268.257 159.922 268.606 161.646C268.955 163.365 269.127 165.104 269.127 166.859C269.127 168.609 268.955 170.349 268.606 172.068C268.257 173.792 267.741 175.464 267.064 177.083C266.382 178.703 265.543 180.245 264.554 181.703C263.564 183.162 262.444 184.51 261.184 185.75C259.924 186.995 258.554 188.099 257.075 189.073C255.59 190.052 254.028 190.875 252.382 191.547C250.736 192.214 249.043 192.724 247.293 193.063C245.549 193.406 243.783 193.578 242.002 193.578C240.226 193.578 238.46 193.406 236.715 193.063C234.965 192.724 233.272 192.214 231.627 191.547C229.981 190.875 228.418 190.052 226.934 189.073C225.455 188.099 224.085 186.995 222.825 185.75C221.564 184.51 220.444 183.162 219.455 181.703C218.465 180.245 217.627 178.703 216.944 177.083C216.267 175.464 215.752 173.792 215.403 172.068C215.054 170.349 214.882 168.609 214.882 166.859Z" fill="white"/>
</mask>
<g mask="url(#mask16_1148_452)">
<path d="M242.741 170.344L244.855 168.833L244.564 167.943L237.783 172.797L237.309 174.235L241.975 170.896L248.35 175.464L247.876 174.021L242.741 170.344Z" fill="#F9DF5F"/>
</g>
</g>
<mask id="mask17_1148_452" style="mask-type:luminance" maskUnits="userSpaceOnUse" x="232" y="164" width="10" height="13">
<path d="M232.574 164.083H241.908V176.083H232.574V164.083Z" fill="white"/>
</mask>
<g mask="url(#mask17_1148_452)">
<mask id="mask18_1148_452" style="mask-type:luminance" maskUnits="userSpaceOnUse" x="214" y="140" width="56" height="54">
<path d="M214.882 166.859C214.882 165.104 215.054 163.365 215.403 161.646C215.752 159.922 216.267 158.25 216.944 156.63C217.627 155.01 218.465 153.469 219.455 152.01C220.444 150.552 221.564 149.203 222.825 147.964C224.085 146.724 225.455 145.615 226.934 144.641C228.418 143.667 229.981 142.844 231.627 142.172C233.272 141.5 234.965 140.99 236.715 140.651C238.46 140.307 240.226 140.135 242.002 140.135C243.783 140.135 245.549 140.307 247.293 140.651C249.043 140.99 250.736 141.5 252.382 142.172C254.028 142.844 255.59 143.667 257.075 144.641C258.554 145.615 259.924 146.724 261.184 147.964C262.444 149.203 263.564 150.552 264.554 152.01C265.543 153.469 266.382 155.01 267.064 156.63C267.741 158.25 268.257 159.922 268.606 161.646C268.955 163.365 269.127 165.104 269.127 166.859C269.127 168.609 268.955 170.349 268.606 172.068C268.257 173.792 267.741 175.464 267.064 177.083C266.382 178.703 265.543 180.245 264.554 181.703C263.564 183.162 262.444 184.51 261.184 185.75C259.924 186.995 258.554 188.099 257.075 189.073C255.59 190.052 254.028 190.875 252.382 191.547C250.736 192.214 249.043 192.724 247.293 193.063C245.549 193.406 243.783 193.578 242.002 193.578C240.226 193.578 238.46 193.406 236.715 193.063C234.965 192.724 233.272 192.214 231.627 191.547C229.981 190.875 228.418 190.052 226.934 189.073C225.455 188.099 224.085 186.995 222.825 185.75C221.564 184.51 220.444 183.162 219.455 181.703C218.465 180.245 217.627 178.703 216.944 177.083C216.267 175.464 215.752 173.792 215.403 172.068C215.054 170.349 214.882 168.609 214.882 166.859Z" fill="white"/>
</mask>
<g mask="url(#mask18_1148_452)">
<path d="M240.913 170.141L241.684 169.589L234.903 164.734H233.366L238.033 168.078L235.595 175.464L236.84 174.568L238.799 168.625L240.913 170.141Z" fill="#F9DF5F"/>
</g>
</g>
<mask id="mask19_1148_452" style="mask-type:luminance" maskUnits="userSpaceOnUse" x="245" y="168" width="8" height="3">
<path d="M245.906 168.083H252.573V170.75H245.906V168.083Z" fill="white"/>
</mask>
<g mask="url(#mask19_1148_452)">
<mask id="mask20_1148_452" style="mask-type:luminance" maskUnits="userSpaceOnUse" x="214" y="140" width="56" height="54">
<path d="M214.88 166.859C214.88 165.104 215.052 163.365 215.401 161.646C215.75 159.922 216.265 158.25 216.942 156.63C217.625 155.01 218.463 153.469 219.453 152.01C220.442 150.552 221.562 149.203 222.823 147.964C224.083 146.724 225.453 145.615 226.932 144.641C228.416 143.667 229.979 142.844 231.625 142.172C233.271 141.5 234.963 140.99 236.713 140.651C238.458 140.307 240.224 140.135 242 140.135C243.781 140.135 245.547 140.307 247.291 140.651C249.041 140.99 250.734 141.5 252.38 142.172C254.026 142.844 255.588 143.667 257.073 144.641C258.552 145.615 259.922 146.724 261.182 147.964C262.442 149.203 263.562 150.552 264.552 152.01C265.541 153.469 266.38 155.01 267.062 156.63C267.739 158.25 268.255 159.922 268.604 161.646C268.953 163.365 269.125 165.104 269.125 166.859C269.125 168.609 268.953 170.349 268.604 172.068C268.255 173.792 267.739 175.464 267.062 177.083C266.38 178.703 265.541 180.245 264.552 181.703C263.562 183.162 262.442 184.51 261.182 185.75C259.922 186.995 258.552 188.099 257.073 189.073C255.588 190.052 254.026 190.875 252.38 191.547C250.734 192.214 249.041 192.724 247.291 193.063C245.547 193.406 243.781 193.578 242 193.578C240.224 193.578 238.458 193.406 236.713 193.063C234.963 192.724 233.271 192.214 231.625 191.547C229.979 190.875 228.416 190.052 226.932 189.073C225.453 188.099 224.083 186.995 222.823 185.75C221.562 184.51 220.442 183.162 219.453 181.703C218.463 180.245 217.625 178.703 216.942 177.083C216.265 175.464 215.75 173.792 215.401 172.068C215.052 170.349 214.88 168.609 214.88 166.859Z" fill="white"/>
</mask>
<g mask="url(#mask20_1148_452)">
<path d="M246.771 168.156L246.63 168.578L252.218 170.37L252.359 169.948L246.771 168.156Z" fill="#FCDD09"/>
</g>
</g>
<mask id="mask21_1148_452" style="mask-type:luminance" maskUnits="userSpaceOnUse" x="235" y="157" width="5" height="8">
<path d="M235.24 157.417H239.24V164.083H235.24V157.417Z" fill="white"/>
</mask>
<g mask="url(#mask21_1148_452)">
<mask id="mask22_1148_452" style="mask-type:luminance" maskUnits="userSpaceOnUse" x="214" y="140" width="56" height="54">
<path d="M214.881 166.859C214.881 165.104 215.053 163.365 215.402 161.646C215.751 159.922 216.266 158.25 216.943 156.63C217.626 155.01 218.464 153.469 219.454 152.01C220.443 150.552 221.563 149.203 222.824 147.964C224.084 146.724 225.454 145.615 226.933 144.641C228.417 143.667 229.98 142.844 231.626 142.172C233.271 141.5 234.964 140.99 236.714 140.651C238.459 140.307 240.225 140.135 242.001 140.135C243.782 140.135 245.548 140.307 247.292 140.651C249.042 140.99 250.735 141.5 252.381 142.172C254.027 142.844 255.589 143.667 257.074 144.641C258.553 145.615 259.923 146.724 261.183 147.964C262.443 149.203 263.563 150.552 264.553 152.01C265.542 153.469 266.381 155.01 267.063 156.63C267.74 158.25 268.256 159.922 268.605 161.646C268.954 163.365 269.126 165.104 269.126 166.859C269.126 168.609 268.954 170.349 268.605 172.068C268.256 173.792 267.74 175.464 267.063 177.083C266.381 178.703 265.542 180.245 264.553 181.703C263.563 183.162 262.443 184.51 261.183 185.75C259.923 186.995 258.553 188.099 257.074 189.073C255.589 190.052 254.027 190.875 252.381 191.547C250.735 192.214 249.042 192.724 247.292 193.063C245.548 193.406 243.782 193.578 242.001 193.578C240.225 193.578 238.459 193.406 236.714 193.063C234.964 192.724 233.271 192.214 231.626 191.547C229.98 190.875 228.417 190.052 226.933 189.073C225.454 188.099 224.084 186.995 222.824 185.75C221.563 184.51 220.443 183.162 219.454 181.703C218.464 180.245 217.626 178.703 216.943 177.083C216.266 175.464 215.751 173.792 215.402 172.068C215.053 170.349 214.881 168.609 214.881 166.859Z" fill="white"/>
</mask>
<g mask="url(#mask22_1148_452)">
<path d="M235.412 158.339L238.865 163.026L239.23 162.76L235.777 158.078L235.412 158.339Z" fill="#FCDD09"/>
</g>
</g>
<mask id="mask23_1148_452" style="mask-type:luminance" maskUnits="userSpaceOnUse" x="231" y="168" width="7" height="3">
<path d="M231.24 168.083H237.907V170.75H231.24V168.083Z" fill="white"/>
</mask>
<g mask="url(#mask23_1148_452)">
<mask id="mask24_1148_452" style="mask-type:luminance" maskUnits="userSpaceOnUse" x="214" y="140" width="56" height="54">
<path d="M214.881 166.859C214.881 165.104 215.053 163.365 215.402 161.646C215.751 159.922 216.266 158.25 216.943 156.63C217.626 155.01 218.464 153.469 219.454 152.01C220.443 150.552 221.563 149.203 222.824 147.964C224.084 146.724 225.454 145.615 226.933 144.641C228.417 143.667 229.98 142.844 231.626 142.172C233.271 141.5 234.964 140.99 236.714 140.651C238.459 140.307 240.225 140.135 242.001 140.135C243.782 140.135 245.548 140.307 247.292 140.651C249.042 140.99 250.735 141.5 252.381 142.172C254.027 142.844 255.589 143.667 257.074 144.641C258.553 145.615 259.923 146.724 261.183 147.964C262.443 149.203 263.563 150.552 264.553 152.01C265.542 153.469 266.381 155.01 267.063 156.63C267.74 158.25 268.256 159.922 268.605 161.646C268.954 163.365 269.126 165.104 269.126 166.859C269.126 168.609 268.954 170.349 268.605 172.068C268.256 173.792 267.74 175.464 267.063 177.083C266.381 178.703 265.542 180.245 264.553 181.703C263.563 183.162 262.443 184.51 261.183 185.75C259.923 186.995 258.553 188.099 257.074 189.073C255.589 190.052 254.027 190.875 252.381 191.547C250.735 192.214 249.042 192.724 247.292 193.063C245.548 193.406 243.782 193.578 242.001 193.578C240.225 193.578 238.459 193.406 236.714 193.063C234.964 192.724 233.271 192.214 231.626 191.547C229.98 190.875 228.417 190.052 226.933 189.073C225.454 188.099 224.084 186.995 222.824 185.75C221.563 184.51 220.443 183.162 219.454 181.703C218.464 180.245 217.626 178.703 216.943 177.083C216.266 175.464 215.751 173.792 215.402 172.068C215.053 170.349 214.881 168.609 214.881 166.859Z" fill="white"/>
</mask>
<g mask="url(#mask24_1148_452)">
<path d="M231.584 169.948L231.719 170.37L237.313 168.578L237.173 168.156L231.584 169.948Z" fill="#FCDD09"/>
</g>
</g>
<mask id="mask25_1148_452" style="mask-type:luminance" maskUnits="userSpaceOnUse" x="244" y="157" width="5" height="8">
<path d="M244.574 157.417H248.574V164.083H244.574V157.417Z" fill="white"/>
</mask>
<g mask="url(#mask25_1148_452)">
<mask id="mask26_1148_452" style="mask-type:luminance" maskUnits="userSpaceOnUse" x="214" y="140" width="56" height="54">
<path d="M214.882 166.859C214.882 165.104 215.054 163.365 215.403 161.646C215.752 159.922 216.267 158.25 216.944 156.63C217.627 155.01 218.465 153.469 219.455 152.01C220.444 150.552 221.564 149.203 222.825 147.964C224.085 146.724 225.455 145.615 226.934 144.641C228.418 143.667 229.981 142.844 231.627 142.172C233.272 141.5 234.965 140.99 236.715 140.651C238.46 140.307 240.226 140.135 242.002 140.135C243.783 140.135 245.549 140.307 247.293 140.651C249.043 140.99 250.736 141.5 252.382 142.172C254.028 142.844 255.59 143.667 257.075 144.641C258.554 145.615 259.924 146.724 261.184 147.964C262.444 149.203 263.564 150.552 264.554 152.01C265.543 153.469 266.382 155.01 267.064 156.63C267.741 158.25 268.257 159.922 268.606 161.646C268.955 163.365 269.127 165.104 269.127 166.859C269.127 168.609 268.955 170.349 268.606 172.068C268.257 173.792 267.741 175.464 267.064 177.083C266.382 178.703 265.543 180.245 264.554 181.703C263.564 183.162 262.444 184.51 261.184 185.75C259.924 186.995 258.554 188.099 257.075 189.073C255.59 190.052 254.028 190.875 252.382 191.547C250.736 192.214 249.043 192.724 247.293 193.063C245.549 193.406 243.783 193.578 242.002 193.578C240.226 193.578 238.46 193.406 236.715 193.063C234.965 192.724 233.272 192.214 231.627 191.547C229.981 190.875 228.418 190.052 226.934 189.073C225.455 188.099 224.085 186.995 222.825 185.75C221.564 184.51 220.444 183.162 219.455 181.703C218.465 180.245 217.627 178.703 216.944 177.083C216.267 175.464 215.752 173.792 215.403 172.068C215.054 170.349 214.882 168.609 214.882 166.859Z" fill="white"/>
</mask>
<g mask="url(#mask26_1148_452)">
<path d="M248.168 158.078L244.71 162.76L245.08 163.026L248.533 158.339L248.168 158.078Z" fill="#FCDD09"/>
</g>
</g>
<mask id="mask27_1148_452" style="mask-type:luminance" maskUnits="userSpaceOnUse" x="240" y="170" width="4" height="9">
<path d="M240.574 170.75H243.241V178.75H240.574V170.75Z" fill="white"/>
</mask>
<g mask="url(#mask27_1148_452)">
<mask id="mask28_1148_452" style="mask-type:luminance" maskUnits="userSpaceOnUse" x="214" y="140" width="56" height="54">
<path d="M214.882 166.859C214.882 165.104 215.054 163.365 215.403 161.646C215.752 159.922 216.267 158.25 216.944 156.63C217.627 155.01 218.465 153.469 219.455 152.01C220.444 150.552 221.564 149.203 222.825 147.964C224.085 146.724 225.455 145.615 226.934 144.641C228.418 143.667 229.981 142.844 231.627 142.172C233.272 141.5 234.965 140.99 236.715 140.651C238.46 140.307 240.226 140.135 242.002 140.135C243.783 140.135 245.549 140.307 247.293 140.651C249.043 140.99 250.736 141.5 252.382 142.172C254.028 142.844 255.59 143.667 257.075 144.641C258.554 145.615 259.924 146.724 261.184 147.964C262.444 149.203 263.564 150.552 264.554 152.01C265.543 153.469 266.382 155.01 267.064 156.63C267.741 158.25 268.257 159.922 268.606 161.646C268.955 163.365 269.127 165.104 269.127 166.859C269.127 168.609 268.955 170.349 268.606 172.068C268.257 173.792 267.741 175.464 267.064 177.083C266.382 178.703 265.543 180.245 264.554 181.703C263.564 183.162 262.444 184.51 261.184 185.75C259.924 186.995 258.554 188.099 257.075 189.073C255.59 190.052 254.028 190.875 252.382 191.547C250.736 192.214 249.043 192.724 247.293 193.063C245.549 193.406 243.783 193.578 242.002 193.578C240.226 193.578 238.46 193.406 236.715 193.063C234.965 192.724 233.272 192.214 231.627 191.547C229.981 190.875 228.418 190.052 226.934 189.073C225.455 188.099 224.085 186.995 222.825 185.75C221.564 184.51 220.444 183.162 219.455 181.703C218.465 180.245 217.627 178.703 216.944 177.083C216.267 175.464 215.752 173.792 215.403 172.068C215.054 170.349 214.882 168.609 214.882 166.859Z" fill="white"/>
</mask>
<g mask="url(#mask28_1148_452)">
<path d="M241.746 171.755H242.199V177.547H241.746V171.755Z" fill="#FCDD09"/>
</g>
</g>
<path d="M242.001 195.485C225.98 195.485 212.943 182.641 212.943 166.86C212.943 151.068 225.98 138.224 242.001 138.224C258.027 138.224 271.063 151.073 271.063 166.86C271.063 182.646 258.027 195.485 242.001 195.485ZM242.001 145.86C230.256 145.86 220.693 155.281 220.693 166.86C220.693 178.438 230.256 187.854 242.001 187.854C253.751 187.854 263.313 178.438 263.313 166.86C263.313 155.281 253.751 145.86 242.001 145.86Z" fill="white"/>
<mask id="mask29_1148_452" style="mask-type:luminance" maskUnits="userSpaceOnUse" x="211" y="136" width="62" height="107">
<path d="M211 136H273V243H211V136Z" fill="white"/>
</mask>
<g mask="url(#mask29_1148_452)">
<path d="M264.115 190.75C269.786 182.766 273 175.594 273 166.859C273 149.849 259.12 136.057 242 136.057C224.88 136.057 211 149.849 211 166.859C211 175.594 214.208 182.766 219.88 190.75C228.724 203.188 236.87 218.573 239.036 238.625C239.073 238.948 239 239.833 239 239.969C239 241.615 240.339 242.943 241.995 242.943C243.651 242.943 244.984 241.615 244.984 239.969C244.984 239.833 244.911 238.948 244.948 238.625C247.125 218.573 255.271 203.188 264.115 190.75ZM242 191.672C228.094 191.672 216.813 180.563 216.813 166.859C216.813 153.156 228.094 142.042 242 142.042C255.911 142.042 267.193 153.151 267.193 166.859C267.193 180.563 255.911 191.672 242 191.672Z" fill="#E02229"/>
</g>
</svg>
