<svg width="190" height="24" viewBox="0 0 190 24" fill="none" xmlns="http://www.w3.org/2000/svg">
<path d="M0.517045 19V1.54545H12.2784V4.58807H4.20739V8.74716H11.6733V11.7898H4.20739V15.9574H12.3125V19H0.517045ZM18.1783 5.90909L20.5817 10.4858L23.0447 5.90909H26.7692L22.9766 12.4545L26.8714 19H23.1641L20.5817 14.4744L18.0419 19H14.2919L18.1783 12.4545L14.4283 5.90909H18.1783ZM28.9254 23.9091V5.90909H32.505V8.10795H32.6669C32.826 7.75568 33.0561 7.39773 33.3572 7.03409C33.6641 6.66477 34.0618 6.35795 34.5504 6.11364C35.0447 5.86364 35.6584 5.73864 36.3913 5.73864C37.3459 5.73864 38.2266 5.98864 39.0334 6.48864C39.8402 6.98295 40.4851 7.73011 40.968 8.73011C41.451 9.72443 41.6925 10.9716 41.6925 12.4716C41.6925 13.9318 41.4567 15.1648 40.9851 16.1705C40.5192 17.1705 39.8828 17.929 39.076 18.446C38.2749 18.9574 37.3771 19.2131 36.3828 19.2131C35.6783 19.2131 35.0788 19.0966 34.5845 18.8636C34.0959 18.6307 33.6953 18.3381 33.3828 17.9858C33.0703 17.6278 32.8317 17.267 32.6669 16.9034H32.5561V23.9091H28.9254ZM32.4794 12.4545C32.4794 13.233 32.5874 13.9119 32.8033 14.4915C33.0192 15.071 33.3317 15.5227 33.7408 15.8466C34.1499 16.1648 34.647 16.3239 35.2322 16.3239C35.8232 16.3239 36.3232 16.1619 36.7322 15.8381C37.1413 15.5085 37.451 15.054 37.6612 14.4744C37.8771 13.8892 37.9851 13.2159 37.9851 12.4545C37.9851 11.6989 37.88 11.0341 37.6697 10.4602C37.4595 9.88636 37.1499 9.4375 36.7408 9.11364C36.3317 8.78977 35.8288 8.62784 35.2322 8.62784C34.6413 8.62784 34.1413 8.78409 33.7322 9.09659C33.3288 9.40909 33.0192 9.85227 32.8033 10.4261C32.5874 11 32.4794 11.6761 32.4794 12.4545ZM47.7436 1.54545V19H44.1129V1.54545H47.7436ZM56.5668 19.2557C55.2429 19.2557 54.098 18.9744 53.1321 18.4119C52.1719 17.8437 51.4304 17.054 50.9077 16.0426C50.3849 15.0256 50.1236 13.8466 50.1236 12.5057C50.1236 11.1534 50.3849 9.97159 50.9077 8.96023C51.4304 7.94318 52.1719 7.15341 53.1321 6.59091C54.098 6.02273 55.2429 5.73864 56.5668 5.73864C57.8906 5.73864 59.0327 6.02273 59.9929 6.59091C60.9588 7.15341 61.7031 7.94318 62.2259 8.96023C62.7486 9.97159 63.0099 11.1534 63.0099 12.5057C63.0099 13.8466 62.7486 15.0256 62.2259 16.0426C61.7031 17.054 60.9588 17.8437 59.9929 18.4119C59.0327 18.9744 57.8906 19.2557 56.5668 19.2557ZM56.5838 16.4432C57.1861 16.4432 57.6889 16.2727 58.0923 15.9318C58.4957 15.5852 58.7997 15.1136 59.0043 14.517C59.2145 13.9205 59.3196 13.2415 59.3196 12.4801C59.3196 11.7188 59.2145 11.0398 59.0043 10.4432C58.7997 9.84659 58.4957 9.375 58.0923 9.02841C57.6889 8.68182 57.1861 8.50852 56.5838 8.50852C55.9759 8.50852 55.4645 8.68182 55.0497 9.02841C54.6406 9.375 54.331 9.84659 54.1207 10.4432C53.9162 11.0398 53.8139 11.7188 53.8139 12.4801C53.8139 13.2415 53.9162 13.9205 54.1207 14.517C54.331 15.1136 54.6406 15.5852 55.0497 15.9318C55.4645 16.2727 55.9759 16.4432 56.5838 16.4432ZM65.3707 19V5.90909H68.8906V8.19318H69.027C69.2656 7.38068 69.6662 6.76705 70.2287 6.35227C70.7912 5.93182 71.4389 5.72159 72.1719 5.72159C72.3537 5.72159 72.5497 5.73295 72.7599 5.75568C72.9702 5.77841 73.1548 5.80966 73.3139 5.84943V9.07102C73.1435 9.01989 72.9077 8.97443 72.6065 8.93466C72.3054 8.89489 72.0298 8.875 71.7798 8.875C71.2457 8.875 70.7685 8.99148 70.348 9.22443C69.9332 9.4517 69.6037 9.76989 69.3594 10.179C69.1207 10.5881 69.0014 11.0597 69.0014 11.5938V19H65.3707ZM80.5476 19.2557C79.201 19.2557 78.0419 18.983 77.0703 18.4375C76.1044 17.8864 75.3601 17.108 74.8374 16.1023C74.3146 15.0909 74.0533 13.8949 74.0533 12.5142C74.0533 11.1676 74.3146 9.9858 74.8374 8.96875C75.3601 7.9517 76.0959 7.15909 77.0447 6.59091C77.9993 6.02273 79.1186 5.73864 80.4027 5.73864C81.2663 5.73864 82.0703 5.87784 82.8146 6.15625C83.5646 6.42898 84.218 6.84091 84.7749 7.39205C85.3374 7.94318 85.7749 8.63636 86.0874 9.47159C86.3999 10.3011 86.5561 11.2727 86.5561 12.3864V13.3835H75.5021V11.1335H83.1385C83.1385 10.6108 83.0249 10.1477 82.7976 9.74432C82.5703 9.34091 82.255 9.02557 81.8516 8.7983C81.4538 8.56534 80.9908 8.44886 80.4624 8.44886C79.9112 8.44886 79.4226 8.5767 78.9964 8.83239C78.576 9.08239 78.2464 9.42045 78.0078 9.84659C77.7692 10.267 77.647 10.7358 77.6413 11.2528V13.392C77.6413 14.0398 77.7607 14.5994 77.9993 15.071C78.2436 15.5426 78.5874 15.9062 79.0305 16.1619C79.4737 16.4176 79.9993 16.5455 80.6072 16.5455C81.0107 16.5455 81.38 16.4886 81.7152 16.375C82.0504 16.2614 82.3374 16.0909 82.576 15.8636C82.8146 15.6364 82.9964 15.358 83.1214 15.0284L86.4794 15.25C86.3089 16.0568 85.9595 16.7614 85.4311 17.3636C84.9084 17.9602 84.2322 18.4261 83.4027 18.7614C82.5788 19.0909 81.6271 19.2557 80.5476 19.2557Z" fill="black"/>
<path d="M88.9936 19V1.54545H100.755V4.58807H92.6839V8.74716H100.15V11.7898H92.6839V15.9574H100.789V19H88.9936ZM110.584 5.90909V8.63636H102.7V5.90909H110.584ZM104.49 2.77273H108.121V14.9773C108.121 15.3125 108.172 15.5739 108.274 15.7614C108.376 15.9432 108.518 16.071 108.7 16.1449C108.888 16.2187 109.104 16.2557 109.348 16.2557C109.518 16.2557 109.689 16.2415 109.859 16.2131C110.03 16.179 110.161 16.1534 110.251 16.1364L110.822 18.8381C110.641 18.8949 110.385 18.9602 110.055 19.0341C109.726 19.1136 109.325 19.1619 108.854 19.179C107.979 19.2131 107.212 19.0966 106.553 18.8295C105.899 18.5625 105.391 18.1477 105.027 17.5852C104.663 17.0227 104.484 16.3125 104.49 15.4545V2.77273ZM116.861 11.4318V19H113.23V1.54545H116.759V8.21875H116.912C117.207 7.44602 117.685 6.84091 118.344 6.40341C119.003 5.96023 119.83 5.73864 120.824 5.73864C121.733 5.73864 122.526 5.9375 123.202 6.33523C123.884 6.72727 124.412 7.29261 124.787 8.03125C125.168 8.7642 125.355 9.64205 125.349 10.6648V19H121.719V11.3125C121.724 10.5057 121.52 9.87784 121.105 9.42898C120.696 8.98011 120.122 8.75568 119.384 8.75568C118.889 8.75568 118.452 8.8608 118.071 9.07102C117.696 9.28125 117.401 9.58807 117.185 9.99148C116.974 10.3892 116.866 10.8693 116.861 11.4318ZM128.207 19V5.90909H131.837V19H128.207ZM130.031 4.22159C129.491 4.22159 129.028 4.04261 128.641 3.68466C128.261 3.32102 128.07 2.88636 128.07 2.38068C128.07 1.88068 128.261 1.4517 128.641 1.09375C129.028 0.730113 129.491 0.548295 130.031 0.548295C130.57 0.548295 131.031 0.730113 131.411 1.09375C131.798 1.4517 131.991 1.88068 131.991 2.38068C131.991 2.88636 131.798 3.32102 131.411 3.68466C131.031 4.04261 130.57 4.22159 130.031 4.22159ZM140.661 19.2557C139.337 19.2557 138.192 18.9744 137.226 18.4119C136.266 17.8437 135.524 17.054 135.001 16.0426C134.479 15.0256 134.217 13.8466 134.217 12.5057C134.217 11.1534 134.479 9.97159 135.001 8.96023C135.524 7.94318 136.266 7.15341 137.226 6.59091C138.192 6.02273 139.337 5.73864 140.661 5.73864C141.984 5.73864 143.126 6.02273 144.087 6.59091C145.053 7.15341 145.797 7.94318 146.32 8.96023C146.842 9.97159 147.104 11.1534 147.104 12.5057C147.104 13.8466 146.842 15.0256 146.32 16.0426C145.797 17.054 145.053 17.8437 144.087 18.4119C143.126 18.9744 141.984 19.2557 140.661 19.2557ZM140.678 16.4432C141.28 16.4432 141.783 16.2727 142.186 15.9318C142.589 15.5852 142.893 15.1136 143.098 14.517C143.308 13.9205 143.413 13.2415 143.413 12.4801C143.413 11.7188 143.308 11.0398 143.098 10.4432C142.893 9.84659 142.589 9.375 142.186 9.02841C141.783 8.68182 141.28 8.50852 140.678 8.50852C140.07 8.50852 139.558 8.68182 139.143 9.02841C138.734 9.375 138.425 9.84659 138.214 10.4432C138.01 11.0398 137.908 11.7188 137.908 12.4801C137.908 13.2415 138.01 13.9205 138.214 14.517C138.425 15.1136 138.734 15.5852 139.143 15.9318C139.558 16.2727 140.07 16.4432 140.678 16.4432ZM149.464 23.9091V5.90909H153.044V8.10795H153.206C153.365 7.75568 153.595 7.39773 153.896 7.03409C154.203 6.66477 154.601 6.35795 155.089 6.11364C155.584 5.86364 156.197 5.73864 156.93 5.73864C157.885 5.73864 158.766 5.98864 159.572 6.48864C160.379 6.98295 161.024 7.73011 161.507 8.73011C161.99 9.72443 162.232 10.9716 162.232 12.4716C162.232 13.9318 161.996 15.1648 161.524 16.1705C161.058 17.1705 160.422 17.929 159.615 18.446C158.814 18.9574 157.916 19.2131 156.922 19.2131C156.217 19.2131 155.618 19.0966 155.124 18.8636C154.635 18.6307 154.234 18.3381 153.922 17.9858C153.609 17.6278 153.371 17.267 153.206 16.9034H153.095V23.9091H149.464ZM153.018 12.4545C153.018 13.233 153.126 13.9119 153.342 14.4915C153.558 15.071 153.871 15.5227 154.28 15.8466C154.689 16.1648 155.186 16.3239 155.771 16.3239C156.362 16.3239 156.862 16.1619 157.271 15.8381C157.68 15.5085 157.99 15.054 158.2 14.4744C158.416 13.8892 158.524 13.2159 158.524 12.4545C158.524 11.6989 158.419 11.0341 158.209 10.4602C157.999 9.88636 157.689 9.4375 157.28 9.11364C156.871 8.78977 156.368 8.62784 155.771 8.62784C155.18 8.62784 154.68 8.78409 154.271 9.09659C153.868 9.40909 153.558 9.85227 153.342 10.4261C153.126 11 153.018 11.6761 153.018 12.4545ZM164.652 19V5.90909H168.283V19H164.652ZM166.476 4.22159C165.936 4.22159 165.473 4.04261 165.087 3.68466C164.706 3.32102 164.516 2.88636 164.516 2.38068C164.516 1.88068 164.706 1.4517 165.087 1.09375C165.473 0.730113 165.936 0.548295 166.476 0.548295C167.016 0.548295 167.476 0.730113 167.857 1.09375C168.243 1.4517 168.436 1.88068 168.436 2.38068C168.436 2.88636 168.243 3.32102 167.857 3.68466C167.476 4.04261 167.016 4.22159 166.476 4.22159ZM174.924 19.2472C174.089 19.2472 173.344 19.1023 172.691 18.8125C172.038 18.517 171.521 18.0824 171.14 17.5085C170.765 16.929 170.577 16.2074 170.577 15.3438C170.577 14.6165 170.711 14.0057 170.978 13.5114C171.245 13.017 171.609 12.6193 172.069 12.3182C172.529 12.017 173.052 11.7898 173.637 11.6364C174.228 11.483 174.847 11.375 175.495 11.3125C176.256 11.233 176.87 11.1591 177.336 11.0909C177.802 11.017 178.14 10.9091 178.35 10.767C178.56 10.625 178.665 10.4148 178.665 10.1364V10.0852C178.665 9.54545 178.495 9.12784 178.154 8.83239C177.819 8.53693 177.342 8.3892 176.722 8.3892C176.069 8.3892 175.549 8.53409 175.163 8.82386C174.776 9.10795 174.521 9.46591 174.396 9.89773L171.038 9.625C171.208 8.82955 171.543 8.14205 172.043 7.5625C172.543 6.97727 173.188 6.52841 173.978 6.21591C174.773 5.89773 175.694 5.73864 176.739 5.73864C177.467 5.73864 178.163 5.82386 178.827 5.99432C179.498 6.16477 180.092 6.42898 180.609 6.78693C181.131 7.14489 181.543 7.60511 181.844 8.16761C182.146 8.72443 182.296 9.39205 182.296 10.1705V19H178.853V17.1847H178.751C178.54 17.5938 178.259 17.9545 177.907 18.267C177.555 18.5739 177.131 18.8153 176.637 18.9915C176.143 19.1619 175.572 19.2472 174.924 19.2472ZM175.964 16.7415C176.498 16.7415 176.969 16.6364 177.379 16.4261C177.788 16.2102 178.109 15.9205 178.342 15.5568C178.575 15.1932 178.691 14.7812 178.691 14.321V12.9318C178.577 13.0057 178.421 13.0739 178.222 13.1364C178.029 13.1932 177.81 13.2472 177.566 13.2983C177.322 13.3437 177.077 13.3864 176.833 13.4261C176.589 13.4602 176.367 13.4915 176.168 13.5199C175.742 13.5824 175.37 13.6818 175.052 13.8182C174.734 13.9545 174.487 14.1392 174.31 14.3722C174.134 14.5994 174.046 14.8835 174.046 15.2244C174.046 15.7188 174.225 16.0966 174.583 16.358C174.947 16.6136 175.407 16.7415 175.964 16.7415ZM187.235 19.2216C186.673 19.2216 186.19 19.0227 185.786 18.625C185.388 18.2216 185.19 17.7386 185.19 17.1761C185.19 16.6193 185.388 16.142 185.786 15.7443C186.19 15.3466 186.673 15.1477 187.235 15.1477C187.781 15.1477 188.258 15.3466 188.667 15.7443C189.076 16.142 189.281 16.6193 189.281 17.1761C189.281 17.5511 189.184 17.8949 188.991 18.2074C188.803 18.5142 188.556 18.7614 188.249 18.9489C187.942 19.1307 187.604 19.2216 187.235 19.2216Z" fill="#30AF5B"/>
</svg>
