<svg width="640" height="544" viewBox="0 0 640 544" fill="none" xmlns="http://www.w3.org/2000/svg">
<mask id="mask0_1120_2013" style="mask-type:luminance" maskUnits="userSpaceOnUse" x="0" y="0" width="640" height="544">
<path d="M0.314453 0.245605H640V543.754H0.314453V0.245605Z" fill="white"/>
</mask>
<g mask="url(#mask0_1120_2013)">
<path d="M546.638 358.566C511.288 454.026 419.27 522.262 311.526 522.262C308.661 522.262 305.83 522.139 302.982 522.052C304.31 518.714 306.162 515.552 310.373 511.882C320.63 502.918 328.965 504.84 332.809 497.151C336.654 489.48 335.378 484.361 339.851 474.767C340.725 472.898 342.053 470.853 343.556 468.756C305.69 485.182 267.702 497.868 231.531 506.255C231.461 507.182 231.356 508.073 231.303 509.034C229.748 508.51 228.228 507.933 226.69 507.374C213.707 510.274 200.969 512.581 188.58 514.328C225.537 533.095 267.3 543.754 311.526 543.754C421.262 543.754 516.006 478.559 559.027 384.934L546.638 358.566ZM204.83 355.141C199.711 351.786 199.868 354.512 199.868 354.512C197.806 355.386 201.633 357.71 206.91 360.226C212.187 362.76 209.636 364.42 212.676 366.394C215.717 368.369 220.679 365.066 221.326 361.711C221.972 358.339 209.95 358.496 204.83 355.141ZM411.757 392.081C407.196 386.909 405.92 381.457 406.305 376.215C202.174 510.886 -28.5337 500.105 29.0603 347.4C29.3399 346.649 29.5146 343.573 29.305 342.769C27.6275 336.042 26.2645 329.419 25.1811 323.059C24.9714 321.888 23.2764 322.133 22.6299 323.426C4.89389 358.95 -4.38477 398.808 11.4641 432.778C58.067 535.262 262.197 499.406 425.177 399.28C419.969 398.441 415.199 395.995 411.757 392.081ZM221.343 370.501C225.817 373.052 225.432 369.697 231.793 370.501C238.136 371.304 239.586 371.462 239.586 371.462C239.586 371.462 245.073 369.976 243.43 368.421C240.547 365.695 240.547 365.695 240.547 365.695C240.547 365.695 234.938 363.616 230.447 364.577C225.974 365.538 216.887 367.949 221.343 370.501ZM351.874 190.589C360.523 186.745 361.484 177.152 377.333 174.268C393.199 171.385 400.87 170.442 404.243 155.554C407.615 140.684 414.815 139.251 414.815 126.774C414.815 114.298 416.737 93.6612 423.464 86.4619C430.192 79.2802 444.118 71.5916 429.72 72.5527C415.286 73.5138 422.975 72.5527 406.165 71.1198C389.355 69.687 387.905 67.2756 395.593 65.3534C403.282 63.4488 414.343 64.4098 411.46 58.6435C408.559 52.8945 406.654 44.2449 392.221 47.6174C377.822 50.9724 368.858 60.5656 355.071 62.4877C341.302 64.4098 335.535 65.8427 331.202 74.003C326.886 82.1459 312.942 81.6741 306.703 89.3451C300.448 97.0337 299.976 108.06 310.058 107.588C320.158 107.099 325.925 113.826 325.925 124.38C325.925 134.935 334.085 151.727 327.358 159.887C320.63 168.03 316.786 177.152 323.042 190.589C329.28 204.009 334.085 221.291 339.851 214.581C345.618 207.853 345.618 207.853 345.618 207.853C345.618 207.853 343.224 194.416 351.874 190.589ZM132.191 446.547C88.1047 401.447 60.8803 339.851 60.8803 272C60.8803 247.711 64.4275 224.261 70.9278 202.034C71.3297 205.057 72.8674 208.255 77.166 213.13C86.7767 224.017 90.6209 239.359 84.8545 252.796C79.0882 266.234 72.6927 277.102 77.166 287.342C81.6568 297.582 76.8165 303.331 87.563 309.097C98.3095 314.846 100.232 321.888 105.351 330.835C110.489 339.799 110.489 339.799 110.489 339.799C110.489 339.799 123.297 348.116 123.297 358.985C123.297 369.854 130.986 374.345 142.518 375.62C154.051 376.896 154.698 374.345 163.662 379.447C172.626 384.567 180.961 378.172 180.961 389.687C180.961 401.202 184.159 413.364 194.416 408.244C204.673 403.124 209.793 403.614 210.44 409.45C211.069 415.286 215.559 415.915 204.673 422.311C193.769 428.706 199.536 425.508 196.338 437.024C195.989 438.299 195.639 439.313 195.307 440.187C224.838 434.42 257.165 424.705 290.697 410.795C281.314 407.51 284.232 411.721 275.146 405.676C265.535 399.28 268.733 389.687 255.278 388.411C241.823 387.136 241.823 387.136 241.823 387.136C241.823 387.136 243.116 383.938 229.661 387.765C216.206 391.609 215.559 390.333 206.595 393.531C197.614 396.729 186.727 392.256 192.494 386.489C198.26 380.74 198.26 380.74 198.26 380.74C198.26 380.74 202.105 373.698 192.494 371.147C182.883 368.578 174.548 374.45 180.961 366.394C187.374 358.339 190.572 347.47 180.961 351.314C171.35 355.141 173.919 362.183 165.584 363.459C157.249 364.734 149.56 362.183 149.56 356.434C149.56 350.668 143.165 348.116 152.776 339.799C162.386 331.481 150.207 327.637 168.153 330.206C186.081 332.757 189.925 324.439 196.985 334.679C204.027 344.919 207.224 352.59 207.871 349.392C208.517 346.194 206.595 335.326 208.517 328.913C210.44 322.517 212.991 325.715 222.601 317.397C232.212 309.097 225.013 307.891 227.651 303.803C230.29 299.731 228.857 293.493 235.585 292.06C242.312 290.61 247.589 287.499 250.717 283.428C253.845 279.339 253.6 276.701 261.044 276.701C268.488 276.701 268.488 276.701 268.488 276.701C268.488 276.701 283.393 275.268 280.999 270.952C278.588 266.636 277.382 267.597 273.538 268.785C269.694 269.991 264.661 268.068 267.055 264.941C269.467 261.83 271.144 259.436 267.055 256.798C262.966 254.159 264.661 253.443 274.254 253.198C283.865 252.953 290.365 245.038 289.876 250.56C289.404 256.081 282.677 262.302 287.482 263.263C292.287 264.224 302.125 267.107 304.537 265.674C306.931 264.224 307.892 261.358 303.331 260.869C298.77 260.397 296.604 259.663 295.642 256.081C294.681 252.482 301.653 242.644 296.132 236.633C290.592 230.639 284.354 235.689 283.638 227.284C282.921 218.897 284.11 201.143 280.51 205.215C276.91 209.286 269.694 220.801 267.3 215.524C264.888 210.247 272.332 205.459 267.3 202.104C262.25 198.732 256.955 189.873 251.923 191.061C246.873 192.267 244.951 190.589 244.706 196.338C244.479 202.104 240.145 204.254 240.39 212.169C240.617 220.085 243.745 220.801 238.223 229.206C232.701 237.594 232.212 239.271 232.212 239.271C232.212 239.271 231.024 249.354 225.729 245.282C220.452 241.194 220.452 241.194 220.452 241.194C220.452 241.194 228.857 229.678 223.091 227.04C217.324 224.401 213.235 223.213 208.919 217.936C204.586 212.659 192.581 202.331 201.703 194.416C210.842 186.5 214.197 185.067 218.757 180.751C223.335 176.435 224.524 177.623 226.219 180.262C227.896 182.9 230.29 181.957 237.751 183.617C245.195 185.312 246.156 182.184 242.067 176.191C237.979 170.197 236.301 171.63 241.823 167.314C247.345 162.998 255.767 154.366 255.522 149.805C255.278 145.244 260.572 141.645 263.211 148.599C265.849 155.554 273.293 155.554 270.655 162.281C268.016 168.991 268.977 172.591 262.25 174.024C255.522 175.474 249.511 179.074 256.239 181.468C262.966 183.862 264.417 183.617 266.339 188.178C268.261 192.738 274.988 199.466 277.871 197.054C280.755 194.66 284.354 195.622 282.677 188.422C280.999 181.223 278.343 169.481 282.921 174.513C287.482 179.546 291.082 182.429 293.965 178.357C296.848 174.268 299.976 174.985 294.681 168.03C289.404 161.076 279.549 161.32 284.11 157.476C288.67 153.632 298.281 154.121 286.521 145C274.744 135.896 281.471 129.885 274.027 125.097C266.566 120.291 260.328 117.181 255.522 121.742C250.717 126.302 252.15 114.787 255.033 107.815C257.934 100.86 263.683 102.066 271.389 99.1829C279.06 96.2998 297.32 88.8733 302.125 80.2412C306.931 71.5916 317.275 67.2756 322.081 63.9206C326.886 60.5656 339.851 56.7213 336.496 50.0113C333.124 43.2839 333.369 38.9678 321.836 41.3792C310.303 43.7731 300.203 46.6563 286.276 48.3338C272.332 50.0113 269.467 51.6888 258.65 56.0049C247.834 60.3209 228.857 59.8492 215.158 63.9206C201.458 67.992 191.847 67.2756 188.248 75.1913C184.648 83.1069 183.442 85.2737 171.438 92.7176C159.416 100.144 152.688 102.311 156.288 109.493C159.905 116.692 173.587 130.129 167.104 131.807C160.621 133.484 150.294 119.33 141.156 118.142C132.034 116.936 122.423 124.852 116.657 121.008C115.748 120.414 114.7 119.592 113.617 118.701C159.521 59.7618 231.146 21.7385 311.526 21.7385C403.002 21.7385 483.138 70.9276 526.91 144.178C518.557 145.873 515.325 147.883 517.334 157.476C519.903 169.638 526.316 174.758 531.436 174.758C534.441 174.758 525.424 179.353 519.448 183.949C520.078 183.914 520.689 183.897 521.213 183.897C526.927 183.897 532.012 185.155 536.381 187.321C537.08 186.762 537.761 186.203 538.478 185.626C543.265 181.8 544.471 180.839 544.786 180.594C546.061 183.827 547.267 187.129 548.403 190.432L568.271 181.922C530.964 76.2222 429.982 0.245605 311.526 0.245605C161.46 0.245605 39.3525 122.161 39.3525 272C39.3525 337.108 62.4355 396.939 100.826 443.786C110.314 445.481 120.816 446.425 132.191 446.547ZM545.397 305.323C519.571 323.915 490.267 343.626 467.359 357.867L469.91 405.326L457.888 415.863L440.396 373.558C433.354 377.211 428.829 378.905 427.92 377.892C427.046 376.879 429.335 372.615 433.879 366.132L394.091 343.311L406.113 332.774L453.03 341.459C470.155 320.63 493.552 294.209 515.325 271.074L414.011 206.438L425.928 195.971L501.782 217.132C507.304 211.313 508.877 210.038 510.117 208.954C515.412 204.306 525.809 204.725 528.011 207.224C530.055 209.548 528.972 218.844 524.97 223.597L554.955 231.967C564.129 223.545 570.752 217.848 572.761 216.083C587.771 202.926 631.212 188.614 636.716 194.888C642.22 201.143 621.129 243.395 607.377 255.452C605.001 257.549 598.535 263.315 589.292 271.091L593.713 301.793C598.972 298.438 608.338 298.578 610.383 300.902C612.584 303.401 611.641 313.745 606.346 318.393C605.106 319.477 603.638 320.875 597.138 325.575L608.338 403.421L596.404 413.888L545.397 305.323Z" fill="#FCE642"/>
</g>
</svg>
